Coordinates
version=1
nRows=64
nColumns=11
inDegrees=yes

Units are S.I. units (second, meters, Newtons, ...)
If the header above contains a line with 'inDegrees', this indicates whether rotational values are in degrees (yes) or radians (no).

endheader
time	pelvis_tilt	pelvis_tx	pelvis_ty	hip_flexion_r	knee_angle_r	ankle_angle_r	hip_flexion_l	knee_angle_l	ankle_angle_l	lumbar_extension
     38.73756232	     -5.00847037	      0.30054284	      0.81122237	     29.16948056	    -18.45366458	      3.62990649	    -12.86816623	      0.22905574	      0.36989905	     -2.97446472
     38.77089930	     -4.93618240	      0.30870738	      0.80891914	     29.25382564	    -16.16243876	      4.25800075	    -13.45516725	     -0.08421172	      0.94178748	     -3.31733410
     38.80423627	     -4.88335181	      0.31736733	      0.80649129	     29.35051362	    -14.29924622	      5.14052350	    -14.08724502	     -0.33051538	      1.44645934	     -3.55880291
     38.83757324	     -4.93484654	      0.32653900	      0.80387957	     29.54427199	    -12.89038419	      6.09759957	    -14.63730530	     -0.57714249	      1.85644358	     -3.59128060
     38.87091022	     -4.66733566	      0.33620850	      0.80178845	     29.33039317	    -11.90445204	      6.77950120	    -15.57266034	     -0.76680306	      2.05389086	     -3.93539119
     38.90424719	     -4.48401351	      0.34661677	      0.79980608	     29.16327475	    -11.52028624	      7.39645759	    -16.47103200	     -0.93701865	      2.11827541	     -4.07248139
     38.93758416	     -4.20744243	      0.35814475	      0.79817434	     28.83026693	    -11.76125004	      8.07197443	    -17.53242102	     -1.08033221	      1.88194482	     -4.19498392
     38.97092113	     -3.84292775	      0.37085868	      0.79686442	     28.28397210	    -12.55063290	      8.73894168	    -18.70723952	     -1.29219581	      1.34077839	     -4.28424462
     39.00425811	     -3.50684528	      0.38476079	      0.79568049	     27.64529851	    -13.83227688	      9.38503035	    -19.84925783	     -1.61428603	      0.49139530	     -4.23348743
     39.03759508	     -3.31239827	      0.39983193	      0.79449235	     27.06583580	    -14.90090259	      9.17717950	    -20.75088709	     -2.21403666	     -0.59056819	     -3.96556724
     39.07093205	     -3.30447952	      0.41537124	      0.79389037	     26.50718129	    -15.25686051	      8.35465991	    -21.19911129	     -3.25724497	     -1.97926499	     -3.36591933
     39.10426903	     -2.93890309	      0.43085323	      0.79437896	     25.14922778	    -15.29090147	      7.14843470	    -21.70745686	     -4.77178466	     -3.76089706	     -3.11985441
     39.13760600	     -2.63999251	      0.44803750	      0.79523512	     23.85971773	    -15.52699393	      5.49030353	    -21.84404606	     -6.92048622	     -6.03581503	     -2.74987198
     39.17094297	     -2.40077622	      0.46598723	      0.79629272	     22.79027577	    -16.46156707	      4.01065209	    -21.56452745	     -9.64332473	     -8.88230832	     -2.34719711
     39.20427994	     -2.15745627	      0.48388705	      0.79950514	     22.31501451	    -18.28415418	      2.94075120	    -20.81444136	    -12.91688864	    -12.76747345	     -2.11571288
     39.23761692	     -2.15942262	      0.49927279	      0.80190320	     21.85251325	    -20.05023628	      2.48077174	    -19.31619851	    -16.83148154	    -16.14999684	     -1.70735518
     39.27095389	     -2.17028625	      0.51549258	      0.80381577	     21.37526301	    -21.10633819	      1.83778922	    -17.62662327	    -21.48195345	    -19.43092046	     -1.39890666
     39.30429086	     -2.45349775	      0.52906061	      0.80555328	     20.47616082	    -21.04290755	      2.05581235	    -15.43249703	    -27.11228262	    -22.36941565	     -0.93640605
     39.33762783	     -2.00068115	      0.54318112	      0.80933349	     18.73391048	    -20.50290557	      1.85340725	    -13.71456416	    -33.35899807	    -25.41887462	     -1.36608314
     39.37096481	     -1.03926980	      0.55776614	      0.81457965	     16.47656480	    -20.26955614	      1.74670070	    -12.15005546	    -39.76638106	    -28.18566370	     -2.44473276
     39.40430178	     -0.58642014	      0.57184877	      0.81945062	     14.67207729	    -19.72116386	      1.40523478	     -9.73199523	    -45.95539535	    -30.73976256	     -3.10749090
     39.43763875	     -0.60167340	      0.58490640	      0.82353826	     13.55080804	    -19.43501295	      1.11306103	     -6.60813260	    -51.67030263	    -32.18841025	     -3.29267226
     39.47097573	     -0.43641288	      0.59684123	      0.82748239	     12.33299712	    -19.15729901	      0.79498636	     -3.56889540	    -56.83139332	    -31.11221456	     -3.73411733
     39.50431270	     -0.51556072	      0.60764858	      0.83056809	     11.49683393	    -18.93398772	      0.54006174	     -0.31587961	    -61.09320971	    -27.92287816	     -3.97553665
     39.53764967	     -0.78177151	      0.61802453	      0.83281776	     10.91671772	    -18.76717093	      0.41979403	      3.11554120	    -64.26861456	    -23.67791879	     -4.06520286
     39.57098664	     -1.14094648	      0.62849276	      0.83434565	     10.40011338	    -18.54285761	      0.49207886	      6.56731363	    -66.19369128	    -19.26694111	     -4.08705077
     39.60432362	     -1.67162169	      0.63914274	      0.83515087	     10.02855906	    -18.27335814	      0.72161293	     10.02854259	    -66.85031582	    -15.08824741	     -3.95086333
     39.63766059	     -2.24717621	      0.65000429	      0.83551322	      9.66472049	    -17.98466403	      1.06038224	     13.30985148	    -66.23831173	    -11.60943434	     -3.75672466
     39.67099756	     -2.78120338	      0.66094969	      0.83564301	      9.23351294	    -17.66520692	      1.44686660	     16.30922147	    -64.48690932	     -9.13138938	     -3.58248989
     39.70433453	     -3.14726720	      0.67196986	      0.83567400	      8.59721731	    -17.31877263	      1.92623418	     18.87256339	    -61.84914106	     -7.62560628	     -3.53355587
     39.73767151	     -3.44137351	      0.68301971	      0.83536634	      7.85929310	    -16.94058490	      2.49725033	     21.06170298	    -58.35609033	     -7.04704495	     -3.53883336
     39.77100848	     -3.61712943	      0.69405447	      0.83471887	      6.96707595	    -16.51459702	      3.20005557	     22.74011374	    -53.84279837	     -7.32473743	     -3.65393283
     39.80434545	     -3.83951742	      0.70522483	      0.83351031	      6.08580953	    -16.03759308	      4.04639097	     24.03455602	    -48.53492501	     -8.15316936	     -3.65395837
     39.83768243	     -3.85759612	      0.71655646	      0.83209315	      4.94117372	    -15.49784499	      4.95002663	     24.64197423	    -42.54401365	     -9.27609923	     -3.87688583
     39.87101940	     -3.93592434	      0.72812028	      0.83011425	      3.85984738	    -14.99556925	      5.98467679	     24.86273221	    -35.88155085	    -10.69966623	     -3.99268726
     39.90435637	     -4.07667111	      0.74005094	      0.82757420	      2.82076561	    -14.52244747	      7.11146246	     24.71701321	    -28.48225673	    -12.73174806	     -4.00740603
     39.93769334	     -4.17771794	      0.75250162	      0.82462457	      1.70631196	    -14.07651253	      8.30426032	     24.20188332	    -20.67044924	    -15.15146620	     -4.00989543
     39.97103032	     -4.20099929	      0.76544071	      0.82139693	      0.52010738	    -13.73695587	      9.52870678	     23.43733306	    -13.07541732	    -17.17492448	     -4.05380435
     40.00436729	     -4.15944522	      0.77866796	      0.81800251	     -0.70412961	    -13.50895100	     10.73731032	     22.46423796	     -6.04564127	    -18.19221574	     -4.11296071
     40.03770426	     -4.13858560	      0.79211991	      0.81447447	     -1.85497102	    -13.41596613	     11.89562953	     21.41116512	      0.31596712	    -18.09751412	     -4.10374092
     40.07104123	     -4.11075552	      0.80580831	      0.81094955	     -2.97084714	    -13.44822657	     12.94233411	     20.33510024	      5.87249343	    -17.16057915	     -4.04085636
     40.10437821	     -4.00390020	      0.81989863	      0.80760435	     -4.15129784	    -13.57687465	     13.83971884	     19.36926142	     10.36672700	    -15.68004801	     -4.02741433
     40.13771518	     -4.25106900	      0.83380110	      0.80387473	     -4.87169362	    -13.83495004	     14.67024998	     19.39551552	     13.43591550	    -14.15063684	     -3.60349187
     40.17105215	     -4.27523011	      0.84807250	      0.80053248	     -5.82005247	    -14.18602614	     15.31113925	     19.97417727	     14.65471562	    -12.29213274	     -3.38683902
     40.20438913	     -4.10411141	      0.86353276	      0.79745681	     -6.97826674	    -14.71097187	     15.78985134	     20.55518761	     14.45684075	    -10.12606240	     -3.28872743
     40.23772610	     -3.73138489	      0.88026054	      0.79473932	     -8.30333977	    -15.52148512	     16.11752050	     20.46236996	     13.52821357	     -7.90851910	     -3.34007249
     40.27106307	     -3.58490605	      0.89838154	      0.79190602	     -9.28720398	    -16.75657708	     16.39149534	     20.16009368	     11.85764659	     -5.62263952	     -3.06299546
     40.30440004	     -3.87012713	      0.91711068	      0.78866710	     -9.66502563	    -18.39136435	     16.52892273	     20.65831478	      9.01704208	     -4.49707279	     -2.34293900
     40.33773702	     -4.15096257	      0.93706152	      0.78551751	    -10.00164334	    -20.26684942	     16.31615523	     21.44287019	      6.23264750	     -5.43630072	     -1.50535240
     40.37107399	     -4.03011026	      0.95834563	      0.78320456	    -10.71054610	    -22.34178085	     15.43101531	     21.40736864	      4.08603748	     -7.63853352	     -1.00758066
     40.40441096	     -3.82567334	      0.98053602	      0.78144554	    -11.30367300	    -24.77921591	     13.91059752	     21.06714543	      1.51708761	     -9.73548276	     -0.55369799
     40.43774793	     -3.51026020	      1.00295076	      0.78033727	    -11.78529615	    -27.47058237	     11.67587089	     20.78717592	     -1.76584519	    -11.48593036	     -0.24238493
     40.47108491	     -3.32833784	      1.02475612	      0.77951549	    -11.79268042	    -30.49180974	      8.87577436	     21.12595187	     -5.37502076	    -13.39140441	      0.10366583
     40.50442188	     -3.13952957	      1.04703307	      0.78391550	    -11.25702378	    -33.76176889	      4.03757692	     21.96024321	    -10.03720255	    -12.23541937	      0.33535978
     40.53775885	     -2.70030383	      1.06664774	      0.78391394	    -10.88436562	    -37.26294461	      0.56243165	     21.41326373	    -13.53383542	    -11.82901952	      0.24607445
     40.57109583	     -3.17554974	      1.08848814	      0.78326830	     -9.74371102	    -41.19370605	     -2.93961538	     21.55847598	    -15.73797920	    -11.04168767	      1.00798961
     40.60443280	     -3.36960233	      1.10599867	      0.78750777	     -8.41567574	    -45.65061430	     -6.63816646	     20.51826721	    -16.61487416	     -8.64982500	      1.42428846
     40.63776977	     -3.33414235	      1.12437090	      0.79200287	     -6.89060979	    -50.10283407	    -10.33630173	     18.63749850	    -15.77678475	     -7.37497547	      1.50423468
     40.67110674	     -3.05420969	      1.14303318	      0.79720385	     -5.32480770	    -54.01932248	    -13.83490824	     15.91218236	    -14.01089760	     -6.57262127	      1.19814509
     40.70444372	     -2.49649118	      1.16300107	      0.80276129	     -4.13433661	    -57.31119525	    -15.13211830	     13.48305562	    -13.50972154	     -5.72623594	      0.56333157
     40.73778069	     -2.20307584	      1.18065949	      0.80750462	     -2.61079039	    -60.04061304	    -15.06015806	     11.83140800	    -13.61211604	     -5.20017936	      0.16835970
     40.77111766	     -1.86817951	      1.19555214	      0.81176221	     -0.83259823	    -62.25331658	    -14.43913870	     10.24696991	    -13.42406949	     -5.05424112	     -0.33359627
     40.80445463	     -1.33185868	      1.20833393	      0.81562930	      1.05319763	    -63.85053226	    -13.65507416	      8.31866950	    -12.65995215	     -5.03362800	     -1.09253712
     40.83779161	     -1.01059573	      1.22090800	      0.81851933	      3.27197151	    -64.67682822	    -12.40183834	      6.75881536	    -12.16892387	     -4.80977771	     -1.64486368
